{
    "asset" : {
        "generator" : "Khronos glTF Blender I/O v1.1.45",
        "version" : "2.0"
    },
    "scene" : 0,
    "scenes" : [
        {
            "extras" : {
                "palette_props" : {
                    "current_weight_index" : 10,
                    "weight" : 1,
                    "weight_5" : 0.5,
                    "weight_10" : 1,
                    "weight_2" : 0.25,
                    "weight_0" : 0,
                    "weight_1" : 0.125,
                    "weight_8" : 0.75,
                    "weight_4" : 0.4000000059604645,
                    "weight_3" : 0.33329999446868896,
                    "weight_6" : 0.6000000238418579,
                    "weight_9" : 0.8999999761581421,
                    "weight_7" : 0.6665999889373779
                },
                "simplify_status" : 0,
                "NWBusyDrawing" : "",
                "NWLazySource" : "Emission",
                "NWLazyTarget" : "Mix Shader",
                "color_rules" : [
                    {
                        "name" : "Camera",
                        "type" : 4,
                        "match_object_type" : 8,
                        "color" : [
                            1,
                            0.4426308572292328,
                            0.2025509774684906
                        ],
                        "factor" : 1
                    },
                    {
                        "name" : "Lights",
                        "color" : [
                            0.031626924872398376,
                            0.21581242978572845,
                            0.5
                        ],
                        "type" : 4,
                        "factor" : 1
                    },
                    {
                        "name" : "Groups",
                        "type" : 2,
                        "use_match_regex" : 0
                    }
                ],
                "color_rules_active_index" : 2,
                "namedlayers" : {
                    "layers" : [
                        {
                            "name" : "Layer01"
                        },
                        {
                            "name" : "Layer02"
                        },
                        {
                            "name" : "Layer03"
                        },
                        {
                            "name" : "Layer04"
                        },
                        {
                            "name" : "Layer05"
                        },
                        {
                            "name" : "Layer06"
                        },
                        {
                            "name" : "Layer07"
                        },
                        {
                            "name" : "Layer08"
                        },
                        {
                            "name" : "Layer09"
                        },
                        {
                            "name" : "Layer10"
                        },
                        {
                            "name" : "Layer11"
                        },
                        {
                            "name" : "Layer12"
                        },
                        {
                            "name" : "Layer13"
                        },
                        {
                            "name" : "Layer14"
                        },
                        {
                            "name" : "Layer15"
                        },
                        {
                            "name" : "Layer16"
                        },
                        {
                            "name" : "Layer17"
                        },
                        {
                            "name" : "Layer18"
                        },
                        {
                            "name" : "Layer19"
                        },
                        {
                            "name" : "Layer20"
                        }
                    ],
                    "use_init" : 0
                },
                "ats_settings" : {
                    "threads_error" : 0,
                    "prev_engine" : "CYCLES",
                    "prev_device" : "GPU",
                    "prev_border" : 0,
                    "prev_threads" : 1,
                    "prev_choice" : "256",
                    "prev_res" : [
                        1220,
                        2048
                    ],
                    "prev_border_res" : [
                        0,
                        0,
                        1,
                        1
                    ],
                    "prev_actual_tile_size" : [
                        244,
                        256
                    ],
                    "first_run" : 0,
                    "num_tiles" : [
                        5,
                        8
                    ]
                },
                "screencast_keys_mouse_position" : 0,
                "screencast_keys_mouse" : 1,
                "shot_name" : "Vincent."
            },
            "name" : "Scene",
            "nodes" : [
                1
            ]
        }
    ],
    "nodes" : [
        {
            "camera" : 0,
            "name" : "Camera_Orientation",
            "rotation" : [
                -0.7071067690849304,
                0,
                0,
                0.7071067690849304
            ]
        },
        {
            "children" : [
                0
            ],
            "name" : "Camera",
            "rotation" : [
                0.7071067690849304,
                0,
                0,
                0.7071067690849304
            ],
            "translation" : [
                0,
                1,
                3.4744954109191895
            ]
        }
    ],
    "cameras" : [
        {
            "name" : "Camera",
            "perspective" : {
                "yfov" : 0.5863738059997559,
                "zfar" : 100,
                "znear" : 0.10000000149011612
            },
            "type" : "perspective"
        }
    ],
    "animations" : [
        {
            "channels" : [
                {
                    "sampler" : 0,
                    "target" : {
                        "node" : 1,
                        "path" : "translation"
                    }
                },
                {
                    "sampler" : 1,
                    "target" : {
                        "node" : 1,
                        "path" : "rotation"
                    }
                },
                {
                    "sampler" : 2,
                    "target" : {
                        "node" : 1,
                        "path" : "scale"
                    }
                }
            ],
            "name" : "CameraAction",
            "samplers" : [
                {
                    "input" : 0,
                    "interpolation" : "STEP",
                    "output" : 1
                },
                {
                    "input" : 0,
                    "interpolation" : "STEP",
                    "output" : 2
                },
                {
                    "input" : 0,
                    "interpolation" : "STEP",
                    "output" : 3
                }
            ]
        }
    ],
    "accessors" : [
        {
            "bufferView" : 0,
            "componentType" : 5126,
            "count" : 1,
            "max" : [
                16.916666666666668
            ],
            "min" : [
                16.916666666666668
            ],
            "type" : "SCALAR"
        },
        {
            "bufferView" : 1,
            "componentType" : 5126,
            "count" : 1,
            "type" : "VEC3"
        },
        {
            "bufferView" : 2,
            "componentType" : 5126,
            "count" : 1,
            "type" : "VEC4"
        },
        {
            "bufferView" : 3,
            "componentType" : 5126,
            "count" : 1,
            "type" : "VEC3"
        }
    ],
    "bufferViews" : [
        {
            "buffer" : 0,
            "byteLength" : 4,
            "byteOffset" : 0
        },
        {
            "buffer" : 0,
            "byteLength" : 12,
            "byteOffset" : 4
        },
        {
            "buffer" : 0,
            "byteLength" : 16,
            "byteOffset" : 16
        },
        {
            "buffer" : 0,
            "byteLength" : 12,
            "byteOffset" : 32
        }
    ],
    "buffers" : [
        {
            "byteLength" : 44,
            "uri" : "data:application/octet-stream;base64,"
        }
    ]
}
